<?xml version="1.0" encoding="UTF-8" standalone="no"?><svg xmlns="http://www.w3.org/2000/svg" xmlns:xlink="http://www.w3.org/1999/xlink" contentStyleType="text/css" height="1367px" preserveAspectRatio="none" style="width:965px;height:1367px;background:#FFFFFF;" version="1.1" viewBox="0 0 965 1367" width="965px" zoomAndPan="magnify"><defs/><g><!--MD5=[c541329f0a8967aa026fc65b36e8f452]
cluster com.example--><g id="cluster_com.example"><path d="M8.5,6 L113.5,6 A3.75,3.75 0 0 1 116,8.5 L123,28.2969 L955.5,28.2969 A2.5,2.5 0 0 1 958,30.7969 L958,1357.5 A2.5,2.5 0 0 1 955.5,1360 L8.5,1360 A2.5,2.5 0 0 1 6,1357.5 L6,8.5 A2.5,2.5 0 0 1 8.5,6 " fill="none" style="stroke:#000000;stroke-width:1.5;"/><line style="stroke:#000000;stroke-width:1.5;" x1="6" x2="123" y1="28.2969" y2="28.2969"/><text fill="#000000" font-family="sans-serif" font-size="14" font-weight="bold" lengthAdjust="spacing" textLength="104" x="10" y="20.9951">com.example</text></g><!--MD5=[787e1c84d09cd5f74ae2d2462d05b953]
cluster com.example.application--><g id="cluster_com.example.application"><path d="M249.5,49 L335.5,49 A3.75,3.75 0 0 1 338,51.5 L345,71.2969 L744.5,71.2969 A2.5,2.5 0 0 1 747,73.7969 L747,382.5 A2.5,2.5 0 0 1 744.5,385 L249.5,385 A2.5,2.5 0 0 1 247,382.5 L247,51.5 A2.5,2.5 0 0 1 249.5,49 " fill="none" style="stroke:#000000;stroke-width:1.5;"/><line style="stroke:#000000;stroke-width:1.5;" x1="247" x2="345" y1="71.2969" y2="71.2969"/><text fill="#000000" font-family="sans-serif" font-size="14" font-weight="bold" lengthAdjust="spacing" textLength="85" x="251" y="63.9951">application</text></g><!--MD5=[c9cce3fb41741c5867f7b63505da0472]
cluster com.example.application.port--><g id="cluster_com.example.application.port"><path d="M273.5,92 L307.5,92 A3.75,3.75 0 0 1 310,94.5 L317,114.2969 L720.5,114.2969 A2.5,2.5 0 0 1 723,116.7969 L723,358.5 A2.5,2.5 0 0 1 720.5,361 L273.5,361 A2.5,2.5 0 0 1 271,358.5 L271,94.5 A2.5,2.5 0 0 1 273.5,92 " fill="none" style="stroke:#000000;stroke-width:1.5;"/><line style="stroke:#000000;stroke-width:1.5;" x1="271" x2="317" y1="114.2969" y2="114.2969"/><text fill="#000000" font-family="sans-serif" font-size="14" font-weight="bold" lengthAdjust="spacing" textLength="33" x="275" y="106.9951">port</text></g><!--MD5=[4f19d184f1f9dc96e9e74ac3dc4331d9]
cluster com.example.application.port.rest--><g id="cluster_com.example.application.port.rest"><path d="M297.5,222 L330.5,222 A3.75,3.75 0 0 1 333,224.5 L340,244.2969 L482.5,244.2969 A2.5,2.5 0 0 1 485,246.7969 L485,334.5 A2.5,2.5 0 0 1 482.5,337 L297.5,337 A2.5,2.5 0 0 1 295,334.5 L295,224.5 A2.5,2.5 0 0 1 297.5,222 " fill="none" style="stroke:#000000;stroke-width:1.5;"/><line style="stroke:#000000;stroke-width:1.5;" x1="295" x2="340" y1="244.2969" y2="244.2969"/><text fill="#000000" font-family="sans-serif" font-size="14" font-weight="bold" lengthAdjust="spacing" textLength="32" x="299" y="236.9951">rest</text></g><!--MD5=[cd73d27603bce5c0f88e33a285fa403d]
cluster com.example.application.port.graphql--><g id="cluster_com.example.application.port.graphql"><path d="M511.5,222 L572.5,222 A3.75,3.75 0 0 1 575,224.5 L582,244.2969 L696.5,244.2969 A2.5,2.5 0 0 1 699,246.7969 L699,334.5 A2.5,2.5 0 0 1 696.5,337 L511.5,337 A2.5,2.5 0 0 1 509,334.5 L509,224.5 A2.5,2.5 0 0 1 511.5,222 " fill="none" style="stroke:#000000;stroke-width:1.5;"/><line style="stroke:#000000;stroke-width:1.5;" x1="509" x2="582" y1="244.2969" y2="244.2969"/><text fill="#000000" font-family="sans-serif" font-size="14" font-weight="bold" lengthAdjust="spacing" textLength="60" x="513" y="236.9951">graphql</text></g><!--MD5=[4026835dd777af1d591e7ea3f8daa341]
cluster com.example.domain--><g id="cluster_com.example.domain"><path d="M32.5,418 L90.5,418 A3.75,3.75 0 0 1 93,420.5 L100,440.2969 L715.5,440.2969 A2.5,2.5 0 0 1 718,442.7969 L718,900.5 A2.5,2.5 0 0 1 715.5,903 L32.5,903 A2.5,2.5 0 0 1 30,900.5 L30,420.5 A2.5,2.5 0 0 1 32.5,418 " fill="none" style="stroke:#000000;stroke-width:1.5;"/><line style="stroke:#000000;stroke-width:1.5;" x1="30" x2="100" y1="440.2969" y2="440.2969"/><text fill="#000000" font-family="sans-serif" font-size="14" font-weight="bold" lengthAdjust="spacing" textLength="57" x="34" y="432.9951">domain</text></g><!--MD5=[a957b55e3748766d6a591556547c4ee9]
cluster com.example.repository--><g id="cluster_com.example.repository"><path d="M32.5,936 L115.5,936 A3.75,3.75 0 0 1 118,938.5 L125,958.2969 L931.5,958.2969 A2.5,2.5 0 0 1 934,960.7969 L934,1333.5 A2.5,2.5 0 0 1 931.5,1336 L32.5,1336 A2.5,2.5 0 0 1 30,1333.5 L30,938.5 A2.5,2.5 0 0 1 32.5,936 " fill="none" style="stroke:#000000;stroke-width:1.5;"/><line style="stroke:#000000;stroke-width:1.5;" x1="30" x2="125" y1="958.2969" y2="958.2969"/><text fill="#000000" font-family="sans-serif" font-size="14" font-weight="bold" lengthAdjust="spacing" textLength="82" x="34" y="950.9951">repository</text></g><!--MD5=[cfa55b8d723126cd31cd3c8f8e91cf67]
cluster com.example.repository.infrastructure--><g id="cluster_com.example.repository.infrastructure"><path d="M56.5,1066 L167.5,1066 A3.75,3.75 0 0 1 170,1068.5 L177,1088.2969 L907.5,1088.2969 A2.5,2.5 0 0 1 910,1090.7969 L910,1309.5 A2.5,2.5 0 0 1 907.5,1312 L56.5,1312 A2.5,2.5 0 0 1 54,1309.5 L54,1068.5 A2.5,2.5 0 0 1 56.5,1066 " fill="none" style="stroke:#000000;stroke-width:1.5;"/><line style="stroke:#000000;stroke-width:1.5;" x1="54" x2="177" y1="1088.2969" y2="1088.2969"/><text fill="#000000" font-family="sans-serif" font-size="14" font-weight="bold" lengthAdjust="spacing" textLength="110" x="58" y="1080.9951">infrastructure</text></g><!--MD5=[ad27e96293df59ef632a4abc3fa58b3f]
class com.example.application.port.IEventPort--><g id="elem_com.example.application.port.IEventPort"><rect codeLine="8" fill="#F1F1F1" height="48" id="com.example.application.port.IEventPort" rx="2.5" ry="2.5" style="stroke:#181818;stroke-width:0.5;" width="103" x="445.5" y="127"/><ellipse cx="460.5" cy="143" fill="#B4A7E5" rx="11" ry="11" style="stroke:#181818;stroke-width:1.0;"/><path d="M456.5313,149.5 L456.5313,147.7969 L458.8906,147.5313 L458.8906,139.3281 L456.5313,139.0625 L456.5313,137.3594 L463.6719,137.3594 L463.6719,139.0625 L461.25,139.3281 L461.25,147.5313 L463.6719,147.7969 L463.6719,149.5 L456.5313,149.5 Z " fill="#000000"/><text fill="#000000" font-family="sans-serif" font-size="14" font-style="italic" lengthAdjust="spacing" textLength="71" x="474.5" y="147.8467">IEventPort</text><line style="stroke:#181818;stroke-width:0.5;" x1="446.5" x2="547.5" y1="159" y2="159"/><line style="stroke:#181818;stroke-width:0.5;" x1="446.5" x2="547.5" y1="167" y2="167"/></g><!--MD5=[e5c3dd3255214d0921fad5bce0daf7bf]
class com.example.application.port.rest.RestEventPort--><g id="elem_com.example.application.port.rest.RestEventPort"><rect codeLine="12" fill="#F1F1F1" height="64.2969" id="com.example.application.port.rest.RestEventPort" rx="2.5" ry="2.5" style="stroke:#181818;stroke-width:0.5;" width="157" x="311.5" y="257"/><ellipse cx="338.2" cy="273" fill="#ADD1B2" rx="11" ry="11" style="stroke:#181818;stroke-width:1.0;"/><path d="M337.6688,279.9219 Q335.9188,279.9219 334.7781,279.1875 Q333.6531,278.4375 333.0906,277.0938 Q332.5438,275.7344 332.5438,273.9375 Q332.5438,271.9063 333.2,270.4531 Q333.8563,269 335.1375,268.2188 Q336.4188,267.4375 338.2938,267.4375 Q339.1844,267.4375 339.8563,267.625 Q340.5281,267.7969 341.2156,268.1406 L340.4031,270.1563 Q339.7781,269.8438 339.2313,269.7188 Q338.7,269.5938 338.2156,269.5938 Q337.0438,269.5938 336.3406,270.125 Q335.6375,270.6563 335.3406,271.6094 Q335.0438,272.5625 335.0438,273.8281 Q335.0438,275.8438 335.7625,276.8125 Q336.4813,277.7656 338.075,277.7656 Q338.6688,277.7656 339.2938,277.6094 Q339.9188,277.4531 340.7469,277.0781 L340.7469,279.2969 Q340.0125,279.6094 339.2156,279.7656 Q338.4344,279.9219 337.6688,279.9219 Z " fill="#000000"/><text fill="#000000" font-family="sans-serif" font-size="14" lengthAdjust="spacing" textLength="99" x="354.8" y="277.8467">RestEventPort</text><line style="stroke:#181818;stroke-width:0.5;" x1="312.5" x2="467.5" y1="289" y2="289"/><text fill="#000000" font-family="sans-serif" font-size="14" lengthAdjust="spacing" textLength="145" x="317.5" y="305.9951">IEventService service</text><line style="stroke:#181818;stroke-width:0.5;" x1="312.5" x2="467.5" y1="313.2969" y2="313.2969"/></g><!--MD5=[9020d64752660794b4bfa1a748c3b50c]
class com.example.application.port.graphql.GraphQLEventPort--><g id="elem_com.example.application.port.graphql.GraphQLEventPort"><rect codeLine="19" fill="#F1F1F1" height="64.2969" id="com.example.application.port.graphql.GraphQLEventPort" rx="2.5" ry="2.5" style="stroke:#181818;stroke-width:0.5;" width="159" x="524.5" y="257"/><ellipse cx="539.5" cy="273" fill="#ADD1B2" rx="11" ry="11" style="stroke:#181818;stroke-width:1.0;"/><path d="M538.9688,279.9219 Q537.2188,279.9219 536.0781,279.1875 Q534.9531,278.4375 534.3906,277.0938 Q533.8438,275.7344 533.8438,273.9375 Q533.8438,271.9063 534.5,270.4531 Q535.1563,269 536.4375,268.2188 Q537.7188,267.4375 539.5938,267.4375 Q540.4844,267.4375 541.1563,267.625 Q541.8281,267.7969 542.5156,268.1406 L541.7031,270.1563 Q541.0781,269.8438 540.5313,269.7188 Q540,269.5938 539.5156,269.5938 Q538.3438,269.5938 537.6406,270.125 Q536.9375,270.6563 536.6406,271.6094 Q536.3438,272.5625 536.3438,273.8281 Q536.3438,275.8438 537.0625,276.8125 Q537.7813,277.7656 539.375,277.7656 Q539.9688,277.7656 540.5938,277.6094 Q541.2188,277.4531 542.0469,277.0781 L542.0469,279.2969 Q541.3125,279.6094 540.5156,279.7656 Q539.7344,279.9219 538.9688,279.9219 Z " fill="#000000"/><text fill="#000000" font-family="sans-serif" font-size="14" lengthAdjust="spacing" textLength="127" x="553.5" y="277.8467">GraphQLEventPort</text><line style="stroke:#181818;stroke-width:0.5;" x1="525.5" x2="682.5" y1="289" y2="289"/><text fill="#000000" font-family="sans-serif" font-size="14" lengthAdjust="spacing" textLength="145" x="530.5" y="305.9951">IEventService service</text><line style="stroke:#181818;stroke-width:0.5;" x1="525.5" x2="682.5" y1="313.2969" y2="313.2969"/></g><!--MD5=[01b5cda9a64f613daa4126e2233bef9e]
class com.example.domain.IEventService--><g id="elem_com.example.domain.IEventService"><rect codeLine="28" fill="#F1F1F1" height="48" id="com.example.domain.IEventService" rx="2.5" ry="2.5" style="stroke:#181818;stroke-width:0.5;" width="127" x="408.5" y="526.5"/><ellipse cx="423.5" cy="542.5" fill="#B4A7E5" rx="11" ry="11" style="stroke:#181818;stroke-width:1.0;"/><path d="M419.5313,549 L419.5313,547.2969 L421.8906,547.0313 L421.8906,538.8281 L419.5313,538.5625 L419.5313,536.8594 L426.6719,536.8594 L426.6719,538.5625 L424.25,538.8281 L424.25,547.0313 L426.6719,547.2969 L426.6719,549 L419.5313,549 Z " fill="#000000"/><text fill="#000000" font-family="sans-serif" font-size="14" font-style="italic" lengthAdjust="spacing" textLength="95" x="437.5" y="547.3467">IEventService</text><line style="stroke:#181818;stroke-width:0.5;" x1="409.5" x2="534.5" y1="558.5" y2="558.5"/><line style="stroke:#181818;stroke-width:0.5;" x1="409.5" x2="534.5" y1="566.5" y2="566.5"/></g><!--MD5=[7fdeedc911ca8120d15feff5fbe2f650]
class com.example.domain.EventModel--><g id="elem_com.example.domain.EventModel"><rect codeLine="30" fill="#F1F1F1" height="194.6719" id="com.example.domain.EventModel" rx="2.5" ry="2.5" style="stroke:#181818;stroke-width:0.5;" width="231" x="45.5" y="453"/><ellipse cx="116.25" cy="469" fill="#ADD1B2" rx="11" ry="11" style="stroke:#181818;stroke-width:1.0;"/><path d="M115.7188,475.9219 Q113.9688,475.9219 112.8281,475.1875 Q111.7031,474.4375 111.1406,473.0938 Q110.5938,471.7344 110.5938,469.9375 Q110.5938,467.9063 111.25,466.4531 Q111.9063,465 113.1875,464.2188 Q114.4688,463.4375 116.3438,463.4375 Q117.2344,463.4375 117.9063,463.625 Q118.5781,463.7969 119.2656,464.1406 L118.4531,466.1563 Q117.8281,465.8438 117.2813,465.7188 Q116.75,465.5938 116.2656,465.5938 Q115.0938,465.5938 114.3906,466.125 Q113.6875,466.6563 113.3906,467.6094 Q113.0938,468.5625 113.0938,469.8281 Q113.0938,471.8438 113.8125,472.8125 Q114.5313,473.7656 116.125,473.7656 Q116.7188,473.7656 117.3438,473.6094 Q117.9688,473.4531 118.7969,473.0781 L118.7969,475.2969 Q118.0625,475.6094 117.2656,475.7656 Q116.4844,475.9219 115.7188,475.9219 Z " fill="#000000"/><text fill="#000000" font-family="sans-serif" font-size="14" lengthAdjust="spacing" textLength="81" x="136.75" y="473.8467">EventModel</text><line style="stroke:#181818;stroke-width:0.5;" x1="46.5" x2="275.5" y1="485" y2="485"/><rect fill="none" height="6" style="stroke:#C82930;stroke-width:1.0;" width="6" x="53.5" y="495.6484"/><text fill="#000000" font-family="sans-serif" font-size="14" lengthAdjust="spacing" textLength="46" x="65.5" y="501.9951">long id</text><rect fill="none" height="6" style="stroke:#C82930;stroke-width:1.0;" width="6" x="53.5" y="511.9453"/><text fill="#000000" font-family="sans-serif" font-size="14" lengthAdjust="spacing" textLength="69" x="65.5" y="518.292">String title</text><rect fill="none" height="6" style="stroke:#C82930;stroke-width:1.0;" width="6" x="53.5" y="528.2422"/><text fill="#000000" font-family="sans-serif" font-size="14" lengthAdjust="spacing" textLength="81" x="65.5" y="534.5889">String place</text><rect fill="none" height="6" style="stroke:#C82930;stroke-width:1.0;" width="6" x="53.5" y="544.5391"/><text fill="#000000" font-family="sans-serif" font-size="14" lengthAdjust="spacing" textLength="100" x="65.5" y="550.8857">String speaker</text><rect fill="none" height="6" style="stroke:#C82930;stroke-width:1.0;" width="6" x="53.5" y="560.8359"/><text fill="#000000" font-family="sans-serif" font-size="14" lengthAdjust="spacing" textLength="117" x="65.5" y="567.1826">String eventType</text><rect fill="none" height="6" style="stroke:#C82930;stroke-width:1.0;" width="6" x="53.5" y="577.1328"/><text fill="#000000" font-family="sans-serif" font-size="14" lengthAdjust="spacing" textLength="146" x="65.5" y="583.4795">Timestamp dateTime</text><rect fill="none" height="6" style="stroke:#C82930;stroke-width:1.0;" width="6" x="53.5" y="593.4297"/><text fill="#000000" font-family="sans-serif" font-size="14" lengthAdjust="spacing" textLength="99" x="65.5" y="599.7764">String ownerId</text><line style="stroke:#181818;stroke-width:0.5;" x1="46.5" x2="275.5" y1="607.0781" y2="607.0781"/><ellipse cx="56.5" cy="620.7266" fill="#84BE84" rx="3" ry="3" style="stroke:#038048;stroke-width:1.0;"/><text fill="#000000" font-family="sans-serif" font-size="14" lengthAdjust="spacing" textLength="109" x="65.5" y="624.0732">Object getters()</text><ellipse cx="56.5" cy="637.0234" fill="#84BE84" rx="3" ry="3" style="stroke:#038048;stroke-width:1.0;"/><text fill="#000000" font-family="sans-serif" font-size="14" lengthAdjust="spacing" textLength="205" x="65.5" y="640.3701">EventModelBuilder toBuilder()</text></g><!--MD5=[f736c08eb9093e5811e44bd13846afac]
class com.example.domain.EventModelBuilder--><g id="elem_com.example.domain.EventModelBuilder"><rect codeLine="42" fill="#F1F1F1" height="64.2969" id="com.example.domain.EventModelBuilder" rx="2.5" ry="2.5" style="stroke:#181818;stroke-width:0.5;" width="161" x="46.5" y="774"/><ellipse cx="61.5" cy="790" fill="#ADD1B2" rx="11" ry="11" style="stroke:#181818;stroke-width:1.0;"/><path d="M60.9688,796.9219 Q59.2188,796.9219 58.0781,796.1875 Q56.9531,795.4375 56.3906,794.0938 Q55.8438,792.7344 55.8438,790.9375 Q55.8438,788.9063 56.5,787.4531 Q57.1563,786 58.4375,785.2188 Q59.7188,784.4375 61.5938,784.4375 Q62.4844,784.4375 63.1563,784.625 Q63.8281,784.7969 64.5156,785.1406 L63.7031,787.1563 Q63.0781,786.8438 62.5313,786.7188 Q62,786.5938 61.5156,786.5938 Q60.3438,786.5938 59.6406,787.125 Q58.9375,787.6563 58.6406,788.6094 Q58.3438,789.5625 58.3438,790.8281 Q58.3438,792.8438 59.0625,793.8125 Q59.7813,794.7656 61.375,794.7656 Q61.9688,794.7656 62.5938,794.6094 Q63.2188,794.4531 64.0469,794.0781 L64.0469,796.2969 Q63.3125,796.6094 62.5156,796.7656 Q61.7344,796.9219 60.9688,796.9219 Z " fill="#000000"/><text fill="#000000" font-family="sans-serif" font-size="14" lengthAdjust="spacing" textLength="129" x="75.5" y="794.8467">EventModelBuilder</text><line style="stroke:#181818;stroke-width:0.5;" x1="47.5" x2="206.5" y1="806" y2="806"/><line style="stroke:#181818;stroke-width:0.5;" x1="47.5" x2="206.5" y1="814" y2="814"/><text fill="#000000" font-family="sans-serif" font-size="14" lengthAdjust="spacing" textLength="128" x="52.5" y="830.9951">EventModel build()</text></g><!--MD5=[4e7bc7158212dc01afbc64370e3d3944]
class com.example.domain.EventService--><g id="elem_com.example.domain.EventService"><rect codeLine="46" fill="#F1F1F1" height="162.0781" id="com.example.domain.EventService" rx="2.5" ry="2.5" style="stroke:#181818;stroke-width:0.5;" width="459" x="242.5" y="725"/><ellipse cx="423.25" cy="741" fill="#ADD1B2" rx="11" ry="11" style="stroke:#181818;stroke-width:1.0;"/><path d="M422.7188,747.9219 Q420.9688,747.9219 419.8281,747.1875 Q418.7031,746.4375 418.1406,745.0938 Q417.5938,743.7344 417.5938,741.9375 Q417.5938,739.9063 418.25,738.4531 Q418.9063,737 420.1875,736.2188 Q421.4688,735.4375 423.3438,735.4375 Q424.2344,735.4375 424.9063,735.625 Q425.5781,735.7969 426.2656,736.1406 L425.4531,738.1563 Q424.8281,737.8438 424.2813,737.7188 Q423.75,737.5938 423.2656,737.5938 Q422.0938,737.5938 421.3906,738.125 Q420.6875,738.6563 420.3906,739.6094 Q420.0938,740.5625 420.0938,741.8281 Q420.0938,743.8438 420.8125,744.8125 Q421.5313,745.7656 423.125,745.7656 Q423.7188,745.7656 424.3438,745.6094 Q424.9688,745.4531 425.7969,745.0781 L425.7969,747.2969 Q425.0625,747.6094 424.2656,747.7656 Q423.4844,747.9219 422.7188,747.9219 Z " fill="#000000"/><text fill="#000000" font-family="sans-serif" font-size="14" lengthAdjust="spacing" textLength="89" x="443.75" y="745.8467">EventService</text><line style="stroke:#181818;stroke-width:0.5;" x1="243.5" x2="700.5" y1="757" y2="757"/><text fill="#000000" font-family="sans-serif" font-size="14" lengthAdjust="spacing" textLength="189" x="248.5" y="773.9951">IEventRepository repository</text><line style="stroke:#181818;stroke-width:0.5;" x1="243.5" x2="700.5" y1="781.2969" y2="781.2969"/><text fill="#000000" font-family="sans-serif" font-size="14" lengthAdjust="spacing" textLength="228" x="248.5" y="798.292">EventModel insert(EventModel e)</text><text fill="#000000" font-family="sans-serif" font-size="14" lengthAdjust="spacing" textLength="238" x="248.5" y="814.5889">EventModel update(EventModel e)</text><text fill="#000000" font-family="sans-serif" font-size="14" lengthAdjust="spacing" textLength="414" x="248.5" y="830.8857">EventModel findOneBy(Example&lt;EventModel&gt; e, Pageable)</text><text fill="#000000" font-family="sans-serif" font-size="14" lengthAdjust="spacing" textLength="447" x="248.5" y="847.1826">List&lt;EventModel&gt; findAllBy(Example&lt;EventModel&gt; e, Pageable)</text><text fill="#000000" font-family="sans-serif" font-size="14" lengthAdjust="spacing" textLength="403" x="248.5" y="863.4795">List&lt;EventModel&gt; findAllByOwner(String owner, Pageable)</text><text fill="#000000" font-family="sans-serif" font-size="14" lengthAdjust="spacing" textLength="94" x="248.5" y="879.7764">void remove()</text></g><!--MD5=[e0d8fef47757174ec30a45d73ab551bb]
class com.example.repository.IEventRepository--><g id="elem_com.example.repository.IEventRepository"><rect codeLine="59" fill="#F1F1F1" height="48" id="com.example.repository.IEventRepository" rx="2.5" ry="2.5" style="stroke:#181818;stroke-width:0.5;" width="150" x="383" y="971"/><ellipse cx="398" cy="987" fill="#B4A7E5" rx="11" ry="11" style="stroke:#181818;stroke-width:1.0;"/><path d="M394.0313,993.5 L394.0313,991.7969 L396.3906,991.5313 L396.3906,983.3281 L394.0313,983.0625 L394.0313,981.3594 L401.1719,981.3594 L401.1719,983.0625 L398.75,983.3281 L398.75,991.5313 L401.1719,991.7969 L401.1719,993.5 L394.0313,993.5 Z " fill="#000000"/><text fill="#000000" font-family="sans-serif" font-size="14" font-style="italic" lengthAdjust="spacing" textLength="118" x="412" y="991.8467">IEventRepository</text><line style="stroke:#181818;stroke-width:0.5;" x1="384" x2="532" y1="1003" y2="1003"/><line style="stroke:#181818;stroke-width:0.5;" x1="384" x2="532" y1="1011" y2="1011"/></g><!--MD5=[ffff635fc933736b7fa06d6a5b5d96cd]
class com.example.repository.infrastructure.Event--><g id="elem_com.example.repository.infrastructure.Event"><rect codeLine="62" fill="#F1F1F1" height="194.6719" id="com.example.repository.infrastructure.Event" rx="2.5" ry="2.5" style="stroke:#181818;stroke-width:0.5;" width="248" x="646" y="1101"/><ellipse cx="746.25" cy="1117" fill="#ADD1B2" rx="11" ry="11" style="stroke:#181818;stroke-width:1.0;"/><path d="M745.7188,1123.9219 Q743.9688,1123.9219 742.8281,1123.1875 Q741.7031,1122.4375 741.1406,1121.0938 Q740.5938,1119.7344 740.5938,1117.9375 Q740.5938,1115.9063 741.25,1114.4531 Q741.9063,1113 743.1875,1112.2188 Q744.4688,1111.4375 746.3438,1111.4375 Q747.2344,1111.4375 747.9063,1111.625 Q748.5781,1111.7969 749.2656,1112.1406 L748.4531,1114.1563 Q747.8281,1113.8438 747.2813,1113.7188 Q746.75,1113.5938 746.2656,1113.5938 Q745.0938,1113.5938 744.3906,1114.125 Q743.6875,1114.6563 743.3906,1115.6094 Q743.0938,1116.5625 743.0938,1117.8281 Q743.0938,1119.8438 743.8125,1120.8125 Q744.5313,1121.7656 746.125,1121.7656 Q746.7188,1121.7656 747.3438,1121.6094 Q747.9688,1121.4531 748.7969,1121.0781 L748.7969,1123.2969 Q748.0625,1123.6094 747.2656,1123.7656 Q746.4844,1123.9219 745.7188,1123.9219 Z " fill="#000000"/><text fill="#000000" font-family="sans-serif" font-size="14" lengthAdjust="spacing" textLength="39" x="766.75" y="1121.8467">Event</text><line style="stroke:#181818;stroke-width:0.5;" x1="647" x2="893" y1="1133" y2="1133"/><rect fill="none" height="6" style="stroke:#C82930;stroke-width:1.0;" width="6" x="654" y="1143.6484"/><text fill="#000000" font-family="sans-serif" font-size="14" lengthAdjust="spacing" textLength="46" x="666" y="1149.9951">long id</text><rect fill="none" height="6" style="stroke:#C82930;stroke-width:1.0;" width="6" x="654" y="1159.9453"/><text fill="#000000" font-family="sans-serif" font-size="14" lengthAdjust="spacing" textLength="69" x="666" y="1166.292">String title</text><rect fill="none" height="6" style="stroke:#C82930;stroke-width:1.0;" width="6" x="654" y="1176.2422"/><text fill="#000000" font-family="sans-serif" font-size="14" lengthAdjust="spacing" textLength="81" x="666" y="1182.5889">String place</text><rect fill="none" height="6" style="stroke:#C82930;stroke-width:1.0;" width="6" x="654" y="1192.5391"/><text fill="#000000" font-family="sans-serif" font-size="14" lengthAdjust="spacing" textLength="100" x="666" y="1198.8857">String speaker</text><rect fill="none" height="6" style="stroke:#C82930;stroke-width:1.0;" width="6" x="654" y="1208.8359"/><text fill="#000000" font-family="sans-serif" font-size="14" lengthAdjust="spacing" textLength="117" x="666" y="1215.1826">String eventType</text><rect fill="none" height="6" style="stroke:#C82930;stroke-width:1.0;" width="6" x="654" y="1225.1328"/><text fill="#000000" font-family="sans-serif" font-size="14" lengthAdjust="spacing" textLength="146" x="666" y="1231.4795">Timestamp dateTime</text><rect fill="none" height="6" style="stroke:#C82930;stroke-width:1.0;" width="6" x="654" y="1241.4297"/><text fill="#000000" font-family="sans-serif" font-size="14" lengthAdjust="spacing" textLength="99" x="666" y="1247.7764">String ownerId</text><rect fill="none" height="6" style="stroke:#C82930;stroke-width:1.0;" width="6" x="654" y="1257.7266"/><text fill="#000000" font-family="sans-serif" font-size="14" lengthAdjust="spacing" textLength="201" x="666" y="1264.0732">Timestamp createdDateTime</text><rect fill="none" height="6" style="stroke:#C82930;stroke-width:1.0;" width="6" x="654" y="1274.0234"/><text fill="#000000" font-family="sans-serif" font-size="14" lengthAdjust="spacing" textLength="222" x="666" y="1280.3701">Timestamp lastUpdateDateTime</text><line style="stroke:#181818;stroke-width:0.5;" x1="647" x2="893" y1="1287.6719" y2="1287.6719"/></g><!--MD5=[30a06d59e92f1b067bd66eecef527835]
class com.example.repository.infrastructure.EventDbRepository--><g id="elem_com.example.repository.infrastructure.EventDbRepository"><rect codeLine="74" fill="#F1F1F1" height="178.375" id="com.example.repository.infrastructure.EventDbRepository" rx="2.5" ry="2.5" style="stroke:#181818;stroke-width:0.5;" width="389" x="221.5" y="1109.5"/><ellipse cx="345.25" cy="1125.5" fill="#ADD1B2" rx="11" ry="11" style="stroke:#181818;stroke-width:1.0;"/><path d="M344.7188,1132.4219 Q342.9688,1132.4219 341.8281,1131.6875 Q340.7031,1130.9375 340.1406,1129.5938 Q339.5938,1128.2344 339.5938,1126.4375 Q339.5938,1124.4063 340.25,1122.9531 Q340.9063,1121.5 342.1875,1120.7188 Q343.4688,1119.9375 345.3438,1119.9375 Q346.2344,1119.9375 346.9063,1120.125 Q347.5781,1120.2969 348.2656,1120.6406 L347.4531,1122.6563 Q346.8281,1122.3438 346.2813,1122.2188 Q345.75,1122.0938 345.2656,1122.0938 Q344.0938,1122.0938 343.3906,1122.625 Q342.6875,1123.1563 342.3906,1124.1094 Q342.0938,1125.0625 342.0938,1126.3281 Q342.0938,1128.3438 342.8125,1129.3125 Q343.5313,1130.2656 345.125,1130.2656 Q345.7188,1130.2656 346.3438,1130.1094 Q346.9688,1129.9531 347.7969,1129.5781 L347.7969,1131.7969 Q347.0625,1132.1094 346.2656,1132.2656 Q345.4844,1132.4219 344.7188,1132.4219 Z " fill="#000000"/><text fill="#000000" font-family="sans-serif" font-size="14" lengthAdjust="spacing" textLength="133" x="365.75" y="1130.3467">EventDbRepository</text><line style="stroke:#181818;stroke-width:0.5;" x1="222.5" x2="609.5" y1="1141.5" y2="1141.5"/><rect fill="none" height="6" style="stroke:#C82930;stroke-width:1.0;" width="6" x="229.5" y="1152.1484"/><text fill="#000000" font-family="sans-serif" font-size="14" lengthAdjust="spacing" textLength="182" x="241.5" y="1158.4951">DbConnection connection</text><rect fill="none" height="6" style="stroke:#C82930;stroke-width:1.0;" width="6" x="229.5" y="1168.4453"/><text fill="#000000" font-family="sans-serif" font-size="14" lengthAdjust="spacing" textLength="164" x="241.5" y="1174.792">Properties dbProperties</text><line style="stroke:#181818;stroke-width:0.5;" x1="222.5" x2="609.5" y1="1182.0938" y2="1182.0938"/><polygon fill="#4177AF" points="232.5,1191.7422,228.5,1197.7422,236.5,1197.7422" style="stroke:#1963A0;stroke-width:1.0;"/><text fill="#000000" font-family="sans-serif" font-size="14" lengthAdjust="spacing" textLength="131" x="241.5" y="1199.0889">Event insert(Event)</text><polygon fill="#4177AF" points="232.5,1208.0391,228.5,1214.0391,236.5,1214.0391" style="stroke:#1963A0;stroke-width:1.0;"/><text fill="#000000" font-family="sans-serif" font-size="14" lengthAdjust="spacing" textLength="141" x="241.5" y="1215.3857">Event update(Event)</text><polygon fill="#4177AF" points="232.5,1224.3359,228.5,1230.3359,236.5,1230.3359" style="stroke:#1963A0;stroke-width:1.0;"/><text fill="#000000" font-family="sans-serif" font-size="14" lengthAdjust="spacing" textLength="144" x="241.5" y="1231.6826">Event remove(Event)</text><polygon fill="#4177AF" points="232.5,1240.6328,228.5,1246.6328,236.5,1246.6328" style="stroke:#1963A0;stroke-width:1.0;"/><text fill="#000000" font-family="sans-serif" font-size="14" lengthAdjust="spacing" textLength="258" x="241.5" y="1247.9795">Event findOneBy(Example&lt;Event&gt; e)</text><polygon fill="#4177AF" points="232.5,1256.9297,228.5,1262.9297,236.5,1262.9297" style="stroke:#1963A0;stroke-width:1.0;"/><text fill="#000000" font-family="sans-serif" font-size="14" lengthAdjust="spacing" textLength="363" x="241.5" y="1264.2764">List&lt;Event&gt; findAllBy(Example&lt;Event&gt; e, Pageable)</text><polygon fill="#4177AF" points="232.5,1273.2266,228.5,1279.2266,236.5,1279.2266" style="stroke:#1963A0;stroke-width:1.0;"/><text fill="#000000" font-family="sans-serif" font-size="14" lengthAdjust="spacing" textLength="361" x="241.5" y="1280.5732">List&lt;Event&gt; findAllByOwner(String owner, Pageable)</text></g><!--MD5=[82ab47a1137f9eb6e14fb41d0bbd4f68]
class com.example.repository.infrastructure.Pageable--><g id="elem_com.example.repository.infrastructure.Pageable"><rect codeLine="86" fill="#F1F1F1" height="145.7813" id="com.example.repository.infrastructure.Pageable" rx="2.5" ry="2.5" style="stroke:#181818;stroke-width:0.5;" width="116" x="70" y="1125.5"/><ellipse cx="94" cy="1141.5" fill="#ADD1B2" rx="11" ry="11" style="stroke:#181818;stroke-width:1.0;"/><path d="M93.4688,1148.4219 Q91.7188,1148.4219 90.5781,1147.6875 Q89.4531,1146.9375 88.8906,1145.5938 Q88.3438,1144.2344 88.3438,1142.4375 Q88.3438,1140.4063 89,1138.9531 Q89.6563,1137.5 90.9375,1136.7188 Q92.2188,1135.9375 94.0938,1135.9375 Q94.9844,1135.9375 95.6563,1136.125 Q96.3281,1136.2969 97.0156,1136.6406 L96.2031,1138.6563 Q95.5781,1138.3438 95.0313,1138.2188 Q94.5,1138.0938 94.0156,1138.0938 Q92.8438,1138.0938 92.1406,1138.625 Q91.4375,1139.1563 91.1406,1140.1094 Q90.8438,1141.0625 90.8438,1142.3281 Q90.8438,1144.3438 91.5625,1145.3125 Q92.2813,1146.2656 93.875,1146.2656 Q94.4688,1146.2656 95.0938,1146.1094 Q95.7188,1145.9531 96.5469,1145.5781 L96.5469,1147.7969 Q95.8125,1148.1094 95.0156,1148.2656 Q94.2344,1148.4219 93.4688,1148.4219 Z " fill="#000000"/><text fill="#000000" font-family="sans-serif" font-size="14" lengthAdjust="spacing" textLength="64" x="110" y="1146.3467">Pageable</text><line style="stroke:#181818;stroke-width:0.5;" x1="71" x2="185" y1="1157.5" y2="1157.5"/><text fill="#000000" font-family="sans-serif" font-size="14" lengthAdjust="spacing" textLength="83" x="76" y="1174.4951">String offset</text><text fill="#000000" font-family="sans-serif" font-size="14" lengthAdjust="spacing" textLength="88" x="76" y="1190.792">String sortBy</text><text fill="#000000" font-family="sans-serif" font-size="14" lengthAdjust="spacing" textLength="104" x="76" y="1207.0889">String direction</text><text fill="#000000" font-family="sans-serif" font-size="14" lengthAdjust="spacing" textLength="56" x="76" y="1223.3857">int page</text><text fill="#000000" font-family="sans-serif" font-size="14" lengthAdjust="spacing" textLength="98" x="76" y="1239.6826">long pageSize</text><text fill="#000000" font-family="sans-serif" font-size="14" lengthAdjust="spacing" textLength="74" x="76" y="1255.9795">long count</text><line style="stroke:#181818;stroke-width:0.5;" x1="71" x2="185" y1="1263.2813" y2="1263.2813"/></g><!--MD5=[24726e976a122b442373c2d48002c565]
reverse link com.example.application.port.IEventPort to com.example.application.port.rest.RestEventPort--><g id="link_com.example.application.port.IEventPort_com.example.application.port.rest.RestEventPort"><path d="M466.31,191.01 C449.86,211.92 429.87,237.33 414.48,256.89 " fill="none" id="com.example.application.port.IEventPort-backto-com.example.application.port.rest.RestEventPort" style="stroke:#181818;stroke-width:1.0;stroke-dasharray:7.0,7.0;"/><polygon fill="none" points="460.98,186.46,478.85,175.07,471.98,195.12,460.98,186.46" style="stroke:#181818;stroke-width:1.0;"/></g><!--MD5=[1f523d494e14a37ce3171ae309f9af6a]
reverse link com.example.application.port.IEventPort to com.example.application.port.graphql.GraphQLEventPort--><g id="link_com.example.application.port.IEventPort_com.example.application.port.graphql.GraphQLEventPort"><path d="M527.69,191.01 C544.14,211.92 564.13,237.33 579.52,256.89 " fill="none" id="com.example.application.port.IEventPort-backto-com.example.application.port.graphql.GraphQLEventPort" style="stroke:#181818;stroke-width:1.0;stroke-dasharray:7.0,7.0;"/><polygon fill="none" points="522.02,195.12,515.15,175.07,533.02,186.46,522.02,195.12" style="stroke:#181818;stroke-width:1.0;"/></g><!--MD5=[da9b5c1cceb27de8be67676f4e6b761c]
reverse link com.example.domain.IEventService to com.example.domain.EventService--><g id="link_com.example.domain.IEventService_com.example.domain.EventService"><path d="M472,595.07 C472,630.68 472,681.99 472,724.97 " fill="none" id="com.example.domain.IEventService-backto-com.example.domain.EventService" style="stroke:#181818;stroke-width:1.0;stroke-dasharray:7.0,7.0;"/><polygon fill="none" points="465,594.89,472,574.89,479,594.89,465,594.89" style="stroke:#181818;stroke-width:1.0;"/></g><!--MD5=[8b20dcb26e52e62eccfd0fecd7c43618]
reverse link com.example.repository.IEventRepository to com.example.repository.infrastructure.EventDbRepository--><g id="link_com.example.repository.IEventRepository_com.example.repository.infrastructure.EventDbRepository"><path d="M449.05,1038.93 C444.76,1059.54 439.44,1085.03 434.34,1109.5 " fill="none" id="com.example.repository.IEventRepository-backto-com.example.repository.infrastructure.EventDbRepository" style="stroke:#181818;stroke-width:1.0;stroke-dasharray:7.0,7.0;"/><polygon fill="none" points="442.25,1037.27,453.18,1019.11,455.95,1040.12,442.25,1037.27" style="stroke:#181818;stroke-width:1.0;"/></g><!--MD5=[ecc763f77f28f86247db6c180bf1dea3]
link com.example.domain.EventModel to com.example.domain.EventModelBuilder--><g id="link_com.example.domain.EventModel_com.example.domain.EventModelBuilder"><path codeLine="99" d="M148.05,648.06 C142.39,690.25 136.1,737.19 131.88,768.64 " fill="none" id="com.example.domain.EventModel-to-com.example.domain.EventModelBuilder" style="stroke:#181818;stroke-width:1.0;stroke-dasharray:1.0,3.0;"/><polygon fill="#181818" points="131.17,773.94,136.3418,765.5583,131.8411,768.9852,128.4142,764.4846,131.17,773.94" style="stroke:#181818;stroke-width:1.0;"/><text fill="#000000" font-family="sans-serif" font-size="13" lengthAdjust="spacing" textLength="48" x="145" y="691.0669">creates</text></g><!--MD5=[d1ec3679b369a7d4cb2fad32d94e1e65]
link com.example.domain.EventService to com.example.repository.IEventRepository--><g id="link_com.example.domain.EventService_com.example.repository.IEventRepository"><path codeLine="101" d="M466,887.12 C463.91,915.08 461.69,944.68 460.12,965.62 " fill="none" id="com.example.domain.EventService-to-com.example.repository.IEventRepository" style="stroke:#181818;stroke-width:1.0;"/><polygon fill="#181818" points="459.74,970.75,464.3976,962.072,460.1115,965.7638,456.4197,961.4777,459.74,970.75" style="stroke:#181818;stroke-width:1.0;"/></g><!--MD5=[687cb82fa1255e3a088a820b9fd40f7f]
link com.example.application.port.rest.RestEventPort to com.example.domain.IEventService--><g id="link_com.example.application.port.rest.RestEventPort_com.example.domain.IEventService"><path codeLine="103" d="M399.81,321.04 C415.92,372.03 447.73,472.71 463.18,521.58 " fill="none" id="com.example.application.port.rest.RestEventPort-to-com.example.domain.IEventService" style="stroke:#181818;stroke-width:1.0;"/><polygon fill="#181818" points="464.71,526.42,465.8268,516.6347,463.2105,521.6501,458.195,519.0339,464.71,526.42" style="stroke:#181818;stroke-width:1.0;"/></g><!--MD5=[043fbe4b256b5f626a81d73d38d6fa40]
link com.example.application.port.graphql.GraphQLEventPort to com.example.domain.IEventService--><g id="link_com.example.application.port.graphql.GraphQLEventPort_com.example.domain.IEventService"><path codeLine="104" d="M588.21,321.04 C562.22,372.13 510.86,473.11 486.05,521.87 " fill="none" id="com.example.application.port.graphql.GraphQLEventPort-to-com.example.domain.IEventService" style="stroke:#181818;stroke-width:1.0;"/><polygon fill="#181818" points="483.74,526.42,491.3904,520.2174,486.0103,521.9651,484.2626,516.585,483.74,526.42" style="stroke:#181818;stroke-width:1.0;"/></g><!--MD5=[99c35643cac8ff5e4a94e71e53c3e668]
@startuml

namespace com.example {

    namespace application {
        
        namespace port {

            interface IEventPort

            namespace rest {

                class RestEventPort implements com.example.application.port.IEventPort{
                    IEventService service
                }
            }

            namespace graphql {

                class GraphQLEventPort implements com.example.application.port.IEventPort{
                    IEventService service
                }
            }
        }
    }

    namespace domain {

        interface IEventService

        class EventModel {
            - long id
            - String title
            - String place
            - String speaker
            - String eventType
            - Timestamp dateTime
            - String ownerId
            + Object getters()
            + EventModelBuilder toBuilder()
        }

        class EventModelBuilder {
            EventModel build()
        }

        class EventService implements IEventService {
            IEventRepository repository
            EventModel insert(EventModel e)
            EventModel update(EventModel e)
            EventModel findOneBy(Example<EventModel> e, Pageable)
            List<EventModel> findAllBy(Example<EventModel> e, Pageable)
            List<EventModel> findAllByOwner(String owner, Pageable)
            void remove()
        }
    }

    namespace repository {

        interface IEventRepository

        namespace infrastructure { 
            class Event {
                - long id
                - String title
                - String place
                - String speaker
                - String eventType
                - Timestamp dateTime
                - String ownerId
                - Timestamp createdDateTime
                - Timestamp lastUpdateDateTime
            }

            class EventDbRepository implements com.example.repository.IEventRepository{
                - DbConnection connection
                - Properties dbProperties
                ~ Event insert(Event)
                ~ Event update(Event)
                ~ Event remove(Event)
                ~ Event findOneBy(Example<Event> e)
                ~ List<Event> findAllBy(Example<Event> e, Pageable)
                ~ List<Event> findAllByOwner(String owner, Pageable)

            }

            class Pageable {
                String offset
                String sortBy
                String direction
                int page
                long pageSize
                long count
            }
        }
    }
    
}

com.example.domain.EventModel -[dotted]-> com.example.domain.EventModelBuilder : creates

com.example.domain.EventService - -> com.example.repository.IEventRepository

com.example.application.port.rest.RestEventPort - -> com.example.domain.IEventService
com.example.application.port.graphql.GraphQLEventPort - -> com.example.domain.IEventService

@enduml

PlantUML version 1.2022.7(Mon Aug 22 19:01:30 CEST 2022)
(GPL source distribution)
Java Runtime: OpenJDK Runtime Environment
JVM: OpenJDK 64-Bit Server VM
Default Encoding: UTF-8
Language: en
Country: null
--></g></svg>